<svg xmlns="http://www.w3.org/2000/svg" version="1.1" xmlns:xlink="http://www.w3.org/1999/xlink" xmlns:svgjs="http://svgjs.com/svgjs" width="512" height="512" x="0" y="0" viewBox="0 0 128 128" style="enable-background:new 0 0 512 512" xml:space="preserve" class=""><g><g xmlns="http://www.w3.org/2000/svg"><path d="m75.195 98.505c1.635-2.947 3.511-6.19 5.652-9.69 2.249-3.677 5.321-6.993 9.133-9.856 10.162-7.633 15.99-19.285 15.99-31.97 0-11.052-4.641-21.714-12.73-29.251-8.203-7.643-18.91-11.41-30.152-10.616-20.127 1.427-36.039 17.717-37.011 37.892-.639 13.255 5.304 25.933 15.897 33.912 3.854 2.903 7.046 6.401 9.487 10.396 2.019 3.305 3.796 6.376 5.354 9.182-13.672 1.606-23.419 6.731-23.419 12.976 0 7.571 14.321 13.502 32.604 13.502s32.604-5.931 32.604-13.502c-.001-6.244-9.743-11.368-23.409-12.975z" fill="#ffffff" data-original="#e6e7e8" style="" class=""></path><g><ellipse cx="62" cy="107.48" fill="#b2b3b3" rx="31.604" ry="12.503" data-original="#d4fbff" style="" class=""></ellipse><path d="m100.97 42.989c0-22.462-19.004-40.486-41.812-38.87-19.511 1.384-35.141 17.405-36.082 36.943-.651 13.512 5.586 25.597 15.5 33.065 3.88 2.922 7.206 6.528 9.739 10.673 5.932 9.709 9.816 17.465 11.881 21.883.717 1.534 2.894 1.536 3.613.002 2.103-4.485 6.084-12.419 12.185-22.392 2.425-3.964 5.67-7.343 9.386-10.134 9.465-7.108 15.59-18.421 15.59-31.17z" fill="#b2b3b3" data-original="#0089ef" style="" class=""></path><circle cx="62" cy="42.989" fill="#b2b3b3" r="30" data-original="#6dc9f7" style="" class=""></circle><path d="m62 69.989c-16.065 0-29.18-12.628-29.962-28.5-.025.497-.038.997-.038 1.5 0 16.569 13.431 30 30 30s30-13.431 30-30c0-.503-.013-1.003-.038-1.5-.782 15.872-13.897 28.5-29.962 28.5z" fill="#ffffff" data-original="#ffffff" style="" class=""></path><g><path d="m72 41.592h-4.129c-1.653 1.188-3.677 1.896-5.871 1.896s-4.218-.708-5.871-1.896h-4.129c-3.314 0-6 2.686-6 6v11.451c0 1.105.895 2 2 2h28c1.105 0 2-.895 2-2v-11.451c0-3.314-2.687-6-6-6z" fill="#ffffff" data-original="#ffd7e5" style="" class=""></path><g><g><ellipse cx="62" cy="33.479" fill="#ffffff" rx="10.052" ry="10.009" data-original="#ffffff" style="" class=""></ellipse><g fill="#3a2c60"><path d="m71.195 94.504c1.635-2.947 3.511-6.189 5.652-9.689 2.25-3.679 5.323-6.995 9.133-9.856 10.162-7.632 15.99-19.285 15.99-31.97 0-11.052-4.641-21.714-12.73-29.251-8.203-7.642-18.909-11.412-30.152-10.616-20.127 1.426-36.039 17.717-37.012 37.892-.638 13.256 5.305 25.933 15.898 33.912 3.854 2.903 7.045 6.4 9.487 10.396 2.019 3.305 3.796 6.375 5.354 9.182-13.673 1.605-23.419 6.732-23.419 12.977 0 7.571 14.321 13.502 32.604 13.502s32.604-5.931 32.604-13.502c-.001-6.245-9.742-11.37-23.409-12.977zm-32.018-21.176c-10.064-7.58-15.71-19.624-15.103-32.217.924-19.165 16.037-34.639 35.155-35.994.938-.066 1.872-.1 2.802-.1 9.647 0 18.737 3.562 25.846 10.184 7.685 7.161 12.093 17.289 12.093 27.788 0 12.05-5.537 23.12-15.191 30.37-4.013 3.014-7.256 6.517-9.639 10.412-5.994 9.801-9.963 17.64-12.236 22.49-.25.533-.752.574-.901.574-.148 0-.651-.042-.901-.575-2.223-4.756-6.099-12.43-11.934-21.981-2.574-4.212-5.934-7.896-9.991-10.951zm22.823 45.654c-16.589 0-30.604-5.268-30.604-11.502 0-5.181 9.68-9.689 22.469-11.067 2.379 4.378 4.169 8.008 5.425 10.694.498 1.065 1.537 1.728 2.711 1.729h.002c1.174 0 2.212-.661 2.711-1.725 1.262-2.693 3.054-6.319 5.431-10.696 12.783 1.379 22.457 5.887 22.457 11.066.001 6.233-14.013 11.501-30.602 11.501z" fill="#787878" data-original="#3a2c60" style="" class=""></path><path d="m93 42.989c0-4.915-1.117-9.615-3.319-13.97-.251-.493-.852-.69-1.344-.441-.493.25-.69.851-.441 1.344 2.06 4.072 3.104 8.469 3.104 13.067 0 15.991-13.01 29-29 29-15.991 0-29-13.009-29-29s13.009-29 29-29c3.336 0 6.606.562 9.719 1.668.518.183 1.092-.087 1.277-.607s-.087-1.092-.607-1.277c-3.329-1.184-6.824-1.784-10.389-1.784-17.093 0-31 13.907-31 31s13.907 31 31 31 31-13.906 31-31z" fill="#787878" data-original="#3a2c60" style="" class=""></path><path d="m75.772 17.462c3.662 1.981 6.922 4.791 9.427 8.125.196.262.497.399.801.399.209 0 .42-.065.6-.201.441-.332.53-.958.199-1.4-2.677-3.563-6.161-6.565-10.075-8.682-.486-.265-1.092-.082-1.355.404-.264.485-.083 1.092.403 1.355z" fill="#787878" data-original="#3a2c60" style="" class=""></path><path d="m62 22.47c-6.094 0-11.052 4.939-11.052 11.009 0 2.711.994 5.193 2.631 7.113h-1.579c-3.86 0-7 3.14-7 7v11.451c0 1.654 1.346 3 3 3h28c1.654 0 3-1.346 3-3v-11.451c0-3.86-3.141-7-7-7h-1.579c1.638-1.921 2.631-4.402 2.631-7.113 0-6.07-4.958-11.009-11.052-11.009zm0 2c4.991 0 9.053 4.042 9.053 9.009s-4.062 9.009-9.053 9.009-9.052-4.042-9.052-9.009 4.06-9.009 9.052-9.009zm15 23.122v11.451c0 .551-.448 1-1 1h-28c-.551 0-1-.449-1-1v-11.451c0-2.757 2.243-5 5-5h3.807c1.768 1.196 3.9 1.896 6.193 1.896s4.425-.7 6.193-1.896h3.807c2.757 0 5 2.244 5 5z" fill="#787878" data-original="#3a2c60" style="" class=""></path></g></g></g></g></g></g></g></svg>