<svg xmlns="http://www.w3.org/2000/svg" version="1.1" xmlns:xlink="http://www.w3.org/1999/xlink" xmlns:svgjs="http://svgjs.com/svgjs" width="512" height="512" x="0" y="0" viewBox="0 0 512 512" style="enable-background:new 0 0 512 512" xml:space="preserve" class=""><g><g xmlns="http://www.w3.org/2000/svg" id="solid"><path d="M281.71,183.21a8,8,0,0,1-7.895-2.7l-62.756-75.586-15.2,44.48a240.273,240.273,0,0,0,77.9,44.164A240.285,240.285,0,0,0,362.4,206.326l15.2-44.481Z" fill="#b2b3b3" data-original="#000000" style="" class=""></path><path d="M167.694,368.652l64.9-5.207a104.547,104.547,0,0,1,59.4-33.7l15.153-2.8a104.089,104.089,0,0,1,67,9.968l-5.575-13.936A8,8,0,0,1,368,320V248a112.3,112.3,0,0,0-3-25.784q-6.661.342-13.3.346a256.086,256.086,0,0,1-83.114-13.852,256.158,256.158,0,0,1-83.455-47.438A112.432,112.432,0,0,0,144,248v80a7.994,7.994,0,0,1-.845,3.578l-3.542,7.085a39.761,39.761,0,0,0-4.132,15.188,8.169,8.169,0,0,1-.106.849l23.076,15.9A37.01,37.01,0,0,1,167.694,368.652ZM260.8,289.6l-19.2-14.4A24.116,24.116,0,0,1,232,256v-1.373a23.891,23.891,0,0,1,16-22.6l0-.031v-8a8,8,0,0,1,16,0v8.031a23.892,23.892,0,0,1,16,22.6,8,8,0,0,1-16,0,8,8,0,0,0-16,0V256a8.034,8.034,0,0,0,3.2,6.4l19.2,14.4A24.116,24.116,0,0,1,280,296v1.373a23.891,23.891,0,0,1-16,22.6l0,.031v8a8,8,0,0,1-16,0v-8l0-.031a23.891,23.891,0,0,1-16-22.6,8,8,0,0,1,16,0,8,8,0,0,0,16,0V296A8.034,8.034,0,0,0,260.8,289.6ZM160,248a8,8,0,0,1,16,0v8a8,8,0,0,1-16,0Zm0,32a8,8,0,0,1,16,0v16a8,8,0,0,1-16,0Z" fill="#b2b3b3" data-original="#000000" style="" class=""></path><path d="M134.974,442.408l85.064,34.436,69.384-12.773,63.148-19.032a8,8,0,0,1,6.847,1.072l44.645,30.762,49.546-71.9L372.92,354.6a88.2,88.2,0,0,0-62.867-11.932l-15.153,2.8a88.523,88.523,0,0,0-52.188,30.762,8,8,0,0,1-5.539,2.893l-68.2,5.473a20.805,20.805,0,0,0-.5,41.432l80.964,8.449a8,8,0,0,1-1.661,15.914l-80.964-8.449a36.806,36.806,0,0,1-26.487-57.491,37.134,37.134,0,0,1,3.589-4.438L79.2,335.425A19.905,19.905,0,0,0,54.251,366.3Z" fill="#b2b3b3" data-original="#000000" style="" class=""></path><path d="M423.931,135.13l4.932-1.1L328.822,32.464,187.543,51.556,283,166.529l122.792-27.358-10.286,30.1c-.064.188-.112.376-.161.565a16.077,16.077,0,0,0-2.386.919,16.031,16.031,0,1,0,18.017,2.729l12.607-36.889A8.055,8.055,0,0,0,423.931,135.13Z" fill="#b2b3b3" data-original="#000000" style="" class=""></path></g></g></svg>